<svg width="403" height="312" viewBox="0 0 403 312" fill="none" xmlns="http://www.w3.org/2000/svg">
<path d="M16.9047 79.3318C7.56851 59.3102 16.2307 35.511 36.2523 26.1748V26.1748C56.2739 16.8385 80.0731 25.5007 89.4094 45.5223L181.559 243.138C184.58 249.616 185.254 256.943 183.467 263.863V263.863C179.954 277.465 167.685 286.968 153.637 286.968L139.21 286.968C123.665 286.968 109.527 277.961 102.957 263.873L16.9047 79.3318Z" fill="#3B3B3B"/>
<path d="M220.577 78.3897C211.408 59.8521 217.882 37.3815 235.508 26.5637L240.38 23.5741C260.746 11.0749 287.456 19.104 297.555 40.761L385.397 229.14C394.733 249.161 386.071 272.96 366.05 282.297L365.225 282.681C345.528 291.866 322.102 283.643 312.466 264.163L220.577 78.3897Z" fill="#3B3B3B"/>
<path d="M221.322 40.7044C229.907 22.2926 251.006 13.2657 270.282 19.6813V19.6813C292.98 27.2361 304.111 52.9247 293.984 74.5983L205.553 263.862C198.978 277.935 184.848 286.929 169.314 286.929L156.14 286.929C142.361 286.929 130.168 278.006 126 264.873V264.873C123.602 257.315 124.131 249.131 127.482 241.944L221.322 40.7044Z" fill="#3B3B3B"/>
<rect x="129" y="9.39949" width="50" height="50" rx="25" fill="#4AFF9D"/>
<rect x="231" y="232.399" width="50" height="50" rx="25" fill="#FF5656"/>
</svg>
