<svg width="403" height="312" viewBox="0 0 403 312" fill="none" xmlns="http://www.w3.org/2000/svg">
<path d="M16.9047 79.9323C7.56851 59.9107 16.2307 36.1115 36.2523 26.7753V26.7753C56.2739 17.439 80.0731 26.1012 89.4094 46.1228L181.559 243.739C184.58 250.217 185.254 257.543 183.467 264.463V264.463C179.954 278.065 167.685 287.568 153.637 287.568L139.21 287.568C123.665 287.568 109.527 278.562 102.957 264.473L16.9047 79.9323Z" fill="#D9D9D9"/>
<path d="M220.577 78.9902C211.408 60.4526 217.882 37.982 235.508 27.1642L240.38 24.1746C260.746 11.6754 287.456 19.7045 297.555 41.3615L385.397 229.74C394.733 249.762 386.071 273.561 366.05 282.897L365.225 283.282C345.528 292.466 322.102 284.244 312.466 264.764L220.577 78.9902Z" fill="#D9D9D9"/>
<path d="M221.322 41.3049C229.907 22.8931 251.006 13.8662 270.282 20.2818V20.2818C292.98 27.8366 304.111 53.5253 293.984 75.1988L205.553 264.462C198.978 278.536 184.848 287.53 169.314 287.53L156.14 287.53C142.361 287.53 130.168 278.607 126 265.473V265.473C123.602 257.915 124.131 249.732 127.482 242.545L221.322 41.3049Z" fill="#D9D9D9"/>
<rect x="129" y="10" width="50" height="50" rx="25" fill="#4AFF9D"/>
<rect x="231" y="233" width="50" height="50" rx="25" fill="#FF5656"/>
</svg>
